<?xml version="1.0" encoding="utf-8"?>
<!-- Generator: Adobe Illustrator 15.1.0, SVG Export Plug-In . SVG Version: 6.00 Build 0)  -->
<!DOCTYPE svg PUBLIC "-//W3C//DTD SVG 1.1//EN" "http://www.w3.org/Graphics/SVG/1.1/DTD/svg11.dtd">
<svg xmlns="http://www.w3.org/2000/svg" xmlns:xlink="http://www.w3.org/1999/xlink" version="1.1" x="0px" y="0px" width="388.111px" height="711.417px" viewBox="0 0 388.111 711.417" enable-background="new 0 0 388.111 711.417" xml:space="preserve">
<g id="Layer_1" display="none">
	
		
</g>
<g id="Layer_2">
	<g>
		<g>
			<g>
				<path fill="#FFFFFF" d="M150.95,263.504l6,18.667c0,0,16.667,6,26.667,10.667s16-0.667,28.667-4.667s24.001-6.667,28.667-1.333      s0,17.333,15.333,13.333s20.001-7.333,26.667-15.333s11.332-18.667,10.666-20.667s-70-16.667-70-16.667L150.95,263.504z"/>
				<g>
					<g>
						<g>
							<g>
								<g>
									<g>
										<g>
											<path fill="#FFFFFF" d="M86.45,343.504c0,0,0.5,35.5-2,43.5s-3,11-8,15.5s-28,26.5-30.5,32.5s-15,35.5-8.5,88             c7.5,21,9,30,11.5,34.5s1,4-1.5,5.5s-12.5,9-16.5,13.5s-7.5,14-7.5,17s0.5,5.5,0,9.5s-1,4-0.5,8s6-1,0.5,4s-10.5,9-14,12             s-4,12-5,17s-4,11.5-4,14.5s-3,5.5,6.5,8.5s14.5,3,18.5,4s5-1,12-0.5s3-1.5,7.5-1.5s2.5-3,6.5,4s7.5,9,7.5,9             s3.333,2,6.667,1.5s9.833,3,13.333,5s15.5-3,17-1.5s26.5,8,29.5,7.5s15-6,20.5-5.5s11,3,12.5-6s-2-48-4.5-59.5             s-2-19.5-2.5-22.5s2.5,5,7,7s16,5.5,18.5,8.5s-4,2-0.5,8.5s1,8,7.5,13s72,26,73,33.5s-1,10.5-0.5,14.5s-0.5,9.5,8,12.5             s13,1.5,17.5,0.5s8.5,3.5,13,4.5s29,3,32,1s1-6.5,5-6s-1,5,9,3s10,1,14-4.5s5.166-8.834,6.333-11.167             s6.167,5.667,6.167-2.833s-5.5-26-10-31.5s-14-5.5-17-12.5s-9-18.5-7-22.5s15-10.5,20-18s23-41.5,19.5-57             s-5.5-22-15-34.5s-13.5-31.5-14.5-37.5s11.5-45,9.5-54.5s-6.5-16-6-26.5s-1-24.5,0-31.5s6-17.5,1-28.5s-16-55.5-29-59             s1-11-9.5-11.5s-6.5,2.5-21.5,16.5s-3.666-1.667-20.333,13.667c-21.333-13.333-79.5-12.333-94-15.333             s-5.833-13.833-21.333-21.333s-12.667,31.333-24.334,14c-21,16.5-35,30.5-40.5,45.5S86.45,343.504,86.45,343.504z"/>
											<g>
												<g>
													<g>
														<g>
															<g>
																<g>
																	<path fill="#595251" d="M287.95,664.504c0,12-3,34,3,34s1-25,1-30S287.95,664.504,287.95,664.504z"/>
																</g>
																<path fill="#595251" d="M327.95,667.837c0,0,6.333,30,8.333,30s3.334,0.334,2.667-4.333s-4.666-21-7.333-25                  S327.617,665.837,327.95,667.837z"/>
																<path fill="#595251" d="M358.95,685.837l0.333-5.667c0,0,1.333,3.334,2,5.667s0.666,3.334-1,2.667                  S358.95,685.837,358.95,685.837z"/>
																<path fill="#595251" d="M133.283,690.504c0,0,3.333-18.668,3-24.334s1.667,1.334,1.667,1.334s0,2.999,2,8.666                  s4,8.001,2.667,11.334S133.283,690.504,133.283,690.504z"/>
																<path fill="#595251" d="M99.95,685.504c0,0,9.333-34.333,4-34S98.616,679.171,99.95,685.504z"/>
																<path fill="#595251" d="M63.95,679.837c0,0,3.333-4.999,3.333-8.333s3.666-1.334,2.333,2.666s-2.667,10.334-4,9.334                  S63.95,679.837,63.95,679.837z"/>
															</g>
														</g>
													</g>
												</g>
											</g>
										</g>
										<g>
											<path fill="#D0A295" d="M252.949,629.504c-6-4.667-8.666-3.333-12.666-3.333s-6,0.666-4,7.333s2.666,11.333,10.666,8             s10.667-4.667,10.667-4.667L252.949,629.504z"/>
											<path fill="#D0A295" d="M31.616,653.504c-1.333,4,0.667,14,3.333,16s6.667,5.334,10.667,0.667s7.333-6,3.333-8.667             S31.616,653.504,31.616,653.504z"/>
											<path fill="#D0A295" d="M15.616,658.171c0,0-4,6.666-5.333,8.666s8.667,1.334,11.333,2.667s11.333,0.667,5.333-2             S15.616,658.171,15.616,658.171z"/>
											<path fill="#D0A295" d="M283.616,690.171c0,0-4.666,5.332-1.333,6.666s10,2.001,8-0.666S283.616,690.171,283.616,690.171             z"/>
											<path fill="#D0A295" d="M326.283,694.837c0,0-3.334,4.666-0.667,6s6.667-0.666,6.667-0.666L326.283,694.837z"/>
											<path fill="#D0A295" d="M344.283,694.171c-4,2-4,4-0.667,4S344.283,694.171,344.283,694.171z"/>
											<path fill="#D0A295" d="M360.949,680.171c1.334,2-3.999,2.667,1.334,2s4.666-2,2.666-2.667s-4.666-2.667-4.666-2.667             L360.949,680.171z"/>
											<path fill="#D0A295" d="M90.282,678.837c0,0-0.667,6,0,8s6.667,3.334,6.667,3.334L90.282,678.837z"/>
											<polygon fill="#D0A295" points="114.282,684.171 108.282,687.504 112.949,692.171            "/>
											<polygon fill="#D0A295" points="147.616,686.171 154.282,693.504 150.949,684.171            "/>
											<polygon fill="#D0A295" points="60.949,672.171 60.282,685.504 62.949,680.837            "/>
										</g>
									</g>
									<path opacity="0.5" fill="none" stroke="#000000" stroke-width="4" stroke-miterlimit="10" d="M84.949,340.17           c0,0,0.667,38-4,58s-5,9.333-4.333,30.666s2.333,14,2.333,36.667s-2.667,26-0.667,43.333s-1.333,90.667-6,107.334           s-14,24.666-19.333,32.666s-1.333,23.334-1.333,23.334s2.667,11.334,5.333,12s13.333-0.668,17.333,2.666           s11.334,0.668,16,0.001s12.667,1.332,20.667,3.999s10,8.001,19.333,3.334s19.333-0.666,25.333-4s2.667-11.333,4-21.333           s-3.333-22-2.667-33.333s-4-26.667-4.667-36.667s2-22,2-37.333s-2.667-16.667-2.667-21.333s1.333-14,3.333-22s4-58,4-58"/>
								</g>
								<path opacity="0.5" fill="none" stroke="#000000" stroke-width="4" stroke-miterlimit="10" d="M256.949,421.504          c0,2,1.334,16.667,1.334,22.667s4,6.666,2,18.666s-6.668,14-5.334,26.667s4.666,16.667,4,28s0,22,0.667,28s-2,6-2,12          s4,9.334,2,14.667s-2.001,13.333-0.667,25.333s-2.666-2.001-0.666,9.333s3.334,12.668,2,23.334s-3.334,16.667-3.334,28          s0.001,15.333,1.334,23.333s-2.666,6.667,2,12.667s3.332,6,10.666,5.333s5.334,1.999,13.334,3.333s18.666,8.666,25.333,6          s9.333,0.001,20-2.666s5.333-1.334,14-3.334s4.667,1.334,12.667-5.333s8-7.334,11.333-14.667s6.001,3.334-1.333-11.333          s-12.667-22-12.667-22s-3.334,2.001-6.667-3.333s-6.666-10-10.666-18.667s-4-8.667-4-8.667s-4.668-11.332-3.334-26.666          s4-64.667,6-70.667s8-10.667,8-26.667s3.334-34.666,4.667-47.333s6.666-18.668,4.666-36.668s-7-19.999-5-34.666          s3-27.334,1-34"/>
							</g>
							<path opacity="0.5" fill="none" stroke="#000000" stroke-width="4" stroke-miterlimit="10" d="M82.949,400.17         c0,0-48,29.999-49.333,68.666s-3.333,43.334,3.333,61.334s13.333,36,16,40s7.333,14.667,3.333,20s-26.667,18-32,24         s-20.666,14-21.333,20s-2,30.666,2.667,32.666s18,6.667,30,4.667s17.333-8,17.333-8"/>
						</g>
						<path opacity="0.5" fill="none" stroke="#000000" stroke-width="4" stroke-miterlimit="10" d="M333.45,616.504        c0,0,22.165-17.668,26.832-27.001s15.333-28.667,14-42.667s-10.664-31.664-16.332-39.832s-13.668-30.834-13.668-30.834"/>
						<path opacity="0.5" fill="none" stroke="#000000" stroke-width="4" stroke-miterlimit="10" d="M152.282,603.503        c0,0,18,10.667,20,10.667s4.668,2.334,4.668,2.334l-0.5,8.5c0,0,1.168,8.834,7.5,13s53.665,18.832,64.332,27.499        s6,2.667,6,2.667"/>
					</g>
					<path opacity="0.5" fill="none" stroke="#000000" stroke-width="4" stroke-miterlimit="10" d="M176.948,616.168       c0,0,4.667-12,11.333-12.667s9.333-1.333,16.667-6s4.001-9.333,15.334-11.333s17.999-3.333,24.666-4s12.667-0.667,12.667-0.667       "/>
				</g>
				<path opacity="0.5" fill="none" stroke="#000000" stroke-width="4" stroke-miterlimit="10" d="M150.95,263.504l6,18.667      c0,0,16.667,6,26.667,10.667s16-0.667,28.667-4.667s24.001-6.667,28.667-1.333s0,17.333,15.333,13.333      s20.001-7.333,26.667-15.333s11.332-18.667,10.666-20.667s-70-16.667-70-16.667L150.95,263.504z"/>
				<g>
					<g>
						<g>
							<path fill="#7E7061" d="M308.95,76.004c4.5,13,10.5,31.5,11.5,48.5s6,35.5-1,52.5s-8,16-13,32.5s-19,71.5-16.5,83         s9,47,36.5,50s43-5.5,45.5-14s-4.5-20.5-2.5-33s14-39.5,18-49.5c0,0,5-37.5-12.5-70s-9-46.5-14.5-56s-31.5-57.5-44-67         s-24.5,2-20,9S308.95,76.004,308.95,76.004z"/>
							<path fill="#7E7061" d="M122.95,76.004c0,0-17.5,31-18,47s20,73,23,77s24.5,84,22,94s-3,22.5-16,33.5s-45,27-68.5,11.5         s-18.5-22.5-15.5-29s-3.5-17.5-6.5-29.5s-11.5-21-12.5-36s2.5-31,10.5-47s20.5-46.5,23-56.5s-1-10,4.5-21.5s9.5-16.5,16-23         s26.5-33,30-39.5s11.5-15.5,13.5-5S122.95,76.004,122.95,76.004z"/>
						</g>
					</g>
					<g>
						<g>
							<path fill="#C29361" d="M111.95,59.504c11.298-18.175,55-60,101.5-59.5s81,29.5,92.5,42.5s11.5,55.5,15,72s10,53.5,2,71         s-17.5,38.5-16.5,46.5s-173,20.5-178,6s-39-72-36-98S100.45,78.004,111.95,59.504z"/>
							<g>
								<path fill="#FFFFFF" d="M221.95,18.504c0,0-28-3.5-33,0.5s-5.5,21,2.5,39s15,28.5,15.5,39s-0.5,29-22,47.5s-28,39.5-30.5,52          s-14,20-18.5,30.5s-13.5,28.5-5,35.5s55,8.5,64,3s17-11.5,20-13.5s4,0.5,24.5,8.5s30,15.5,45.5,9.5s30-14,24-26          c-2.713-5.425-12.169-15.133-18.5-30.5c-7.673-18.624-12.863-43.59-23-54c-18.5-19-38-28-36.5-47.5c2-7,6-21.5,6-21.5          s1-10,1-19s3-28.5,3.5-39s1.5-14-3.5-14S221.95,18.504,221.95,18.504z"/>
								<path opacity="0.25" fill="none" stroke="#000000" stroke-width="4" stroke-miterlimit="10" d="M221.95,18.504          c0,0-28-3.5-33,0.5s-5.5,21,2.5,39s15,28.5,15.5,39s-0.5,29-22,47.5s-28,39.5-30.5,52s-14,20-18.5,30.5s-13.5,28.5-5,35.5          s55,8.5,64,3s17-11.5,20-13.5s4,0.5,24.5,8.5s30,15.5,45.5,9.5s30-14,24-26c-2.713-5.425-12.169-15.133-18.5-30.5          c-7.673-18.624-12.863-43.59-23-54c-18.5-19-38-28-36.5-47.5c2-7,6-21.5,6-21.5s1-10,1-19s3-28.5,3.5-39s1.5-14-3.5-14          S221.95,18.504,221.95,18.504z"/>
								<path d="M216.45,191.004c0,0,19.5-5.5,24.5,1.5s8,28-6,40c-13.5,6-16.5,6-16.5,6s-13,0.5-20-5.5s-15.5-26.5-13-29.5          s9-11.5,14-11.5s11-1,13.5-1S216.45,191.004,216.45,191.004z"/>
								<path d="M214.071,236.234c0,0-0.85,9.462,0.421,12.086c1.271,2.624,5.573,5.019,5.024-0.051          c-0.549-5.07-1.372-12.674-1.372-12.674"/>
							</g>
						</g>
						<g>
							<g>
								<path fill="#423E41" d="M176.95,124.004c-5.5-2.5-6.5-1-11.5-9.5s-7-7-7-7s5,3.5-1,7.5s-6.5,3-16,8s-15.5,1-13,6.5          s10.5,17,20.5,20s10,6,20.5-4s11.5-8.5,10.5-14S176.95,124.004,176.95,124.004z"/>
								<path fill="#423E41" d="M281.45,114.004c-6.5-1-11,3-12.5,4.5s-3,9.5-1.5,1.5s2.5-12.5,2.5-12.5l-9.5,15c0,0-9.5,1-7.5,4.5          s12,18.5,16,19.5s16-4,21.5-8.5s11-7.5,11-10s-3.5-8.5-5.5-9S281.45,114.004,281.45,114.004z"/>
							</g>
							<g>
								<path d="M293.45,122.004c0,0-13-4.5-16-5.5s-6-3-8.5,1s-6.5,7.5-3.5,11s4.5,9.5,13,7.5s12-7,15-8.5          S297.45,123.004,293.45,122.004z"/>
								<path d="M165.102,132.751c0,0,9.551-5.094,5.094-8.914s-7.641-7.003-11.461-5.093s-5.73,1.273-11.46,3.82          c-5.73,2.546-10.824,6.367-10.824,6.367s7.641,7.003,14.645,8.277C158.098,138.482,162.555,135.298,165.102,132.751z"/>
							</g>
						</g>
					</g>
				</g>
			</g>
			<path fill="#EAC6A0" d="M346.95,352.504l-17,25c0,0-5,7-9,13s-10,11-7,16s4,13,4,13l-6,4l-12-2l-12,6c0,0-1-5-3,8     c-5.17,33.604,1,47,12,54s23,19,36,9s14-6,11-17s-8-55-10-58s0-16,5-23s7-7,8-15S346.95,352.504,346.95,352.504z"/>
		</g>
		<path fill="#302312" d="M336.95,532.504c0,0,22-4,24,3s8,22,8,22l2-24l-16-26l-10-16l0.705-12.678l1.63-29.342l1.332-23.98    c0,0,5.333-7,3.333-16s-6-24-6-24l-11,9l-8,31l4,21c0,0,12,30,10,33S339.95,529.504,336.95,532.504z"/>
		<path fill="#302312" d="M338.245,533.515c0,0,22-4,24,3s8,22,8,22l2-24l-5.961-18.344l-14.667-21.334l-4.667-15l1.63-29.342    l1.704-12.991c0,0,5.333-12.667,2.961-26.989c-1.507-9.096-6-24-6-24l-11,9l-8,31l4,21c0,0,12,30,10,33    S341.245,530.515,338.245,533.515z"/>
	</g>
</g>
</svg>
